# xmcd
#
# Track frame offsets: 
#        150
#        20606
#        39689
#        64719
#        75088
#        96704
#        114555
#        129982
#        148146
#        169643
#
# Disc length: 2464 seconds
#
# Revision: 0
# Processed by: cddbd v1.5.2PL0 Copyright (c) Steve Scherf et al.
# Submitted via: ExactAudioCopy v0.99pb5
#
DISCID=83099e0a
DTITLE=Turbo - You Girl
DYEAR=1979
DGENRE=Rock
TTITLE0=You Girl
TTITLE1=She'll Come Back
TTITLE2=Domino
TTITLE3=Sadie Slider
TTITLE4=Motel Nights
TTITLE5=Stone Free
TTITLE6=You Were My Love
TTITLE7=Song Of The Sea
TTITLE8=Root Mean Square
TTITLE9=Love To Fight
EXTD=
EXTT0=
EXTT1=
EXTT2=
EXTT3=
EXTT4=
EXTT5=
EXTT6=
EXTT7=
EXTT8=
EXTT9=
PLAYORDER=
